<svg id="mandaory_icon" xmlns="http://www.w3.org/2000/svg" width="32" height="46.438" viewBox="0 0 32 46.438">
  <defs>
    <style>
      .cls-1 {
        fill: #91d400;
      }

      .cls-2 {
        fill: #fff;
      }
    </style>
  </defs>
  <path id="Path_628" data-name="Path 628" class="cls-1" d="M21,2A16.146,16.146,0,0,1,37,18.253c0,12.19-16,30.185-16,30.185S5,30.443,5,18.253A16.146,16.146,0,0,1,21,2Z" transform="translate(-5 -2)"/>
  <path id="Path_633" data-name="Path 633" class="cls-2" d="M17.445,8.538,15.825,5.462,11.947,7.924V3H8.708V7.924L4.829,5.462,3.21,8.538,7.088,11,3.21,13.462l1.619,3.076,3.878-2.462V19h3.239V14.076l3.878,2.462,1.619-3.076L13.566,11Z" transform="translate(5.24 8.765)"/>
</svg>
